<?xml version="1.0" encoding="utf-8"?>
<!-- Generator: Adobe Illustrator 23.1.0, SVG Export Plug-In . SVG Version: 6.00 Build 0)  -->
<svg version="1.1" id="Camada_1" xmlns="http://www.w3.org/2000/svg" xmlns:xlink="http://www.w3.org/1999/xlink" x="0px" y="0px"
	 viewBox="0 0 1080 1080" style="enable-background:new 0 0 1080 1080;" xml:space="preserve">
<style type="text/css">
	.st1, .st8{fill:#ffffff;}
	.st2{opacity:0.5;}
	.st3{clip-path:url(#SVGID_2_);}
	.st4{fill:#A5CE37;}
	.st5{fill:#6FBE43;}
	.st6{clip-path:url(#SVGID_4_);}
	.st7{clip-path:url(#SVGID_6_);}
	.st8{fill-rule:evenodd;clip-rule:evenodd;}
	.st9{filter: drop-shadow(0px 0px 20px rgba(0,0,0,.2));}
</style>
<g>
	<g>
		<path class="st1" d="M252.68,848.9h-31.46l-27.63-97.89h22.64l20.73,77.9l20.73-77.9h22.64L252.68,848.9z"/>
		<path class="st1" d="M293.69,820.54v2.06c0,8.23,3.23,10.44,12.94,10.44c6.61,0,15.43-1.18,21.75-3.09l3.09,15.88
			c-6.47,2.35-16.9,4.56-26.9,4.56c-23.22,0-32.04-11.46-32.04-29.1v-16.76c0-15.43,6.91-28.66,30.72-28.66s28.96,14.11,28.96,29.69
			v14.99H293.69z M312.21,801.57c0-5-1.47-9.11-8.82-9.11c-7.35,0-9.7,4.12-9.7,9.11v3.09h18.52V801.57z"/>
		<path class="st1" d="M389.38,848.9v-47.33c0-3.23-1.47-5.14-5.14-5.14c-3.82,0-10.88,2.65-15.43,5.14v47.33h-21.17v-71.58h15.73
			l2.21,5.44c8.82-4.26,20.28-6.91,28.52-6.91c12.2,0,16.46,9.11,16.46,22.93v50.12H389.38z"/>
		<path class="st1" d="M445.68,821.56c0,7.35,3.09,10.73,11.61,10.73c5.44,0,9.55-0.59,14.7-1.76l2.65,17.64
			c-7.2,1.62-12.35,2.21-17.34,2.21c-23.22,0-32.78-8.67-32.78-29.1v-16.32c0-20.43,9.55-29.1,32.78-29.1c5,0,10.14,0.59,17.34,2.2
			l-2.65,17.64c-4.41-1.03-10.58-1.76-14.7-1.76c-8.53,0-11.61,3.38-11.61,10.73V821.56z"/>
		<path class="st1" d="M506.09,820.54v2.06c0,8.23,3.23,10.44,12.94,10.44c6.61,0,15.43-1.18,21.75-3.09l3.09,15.88
			c-6.47,2.35-16.9,4.56-26.9,4.56c-23.22,0-32.04-11.46-32.04-29.1v-16.76c0-15.43,6.91-28.66,30.72-28.66s28.96,14.11,28.96,29.69
			v14.99H506.09z M524.61,801.57c0-5-1.47-9.11-8.82-9.11c-7.35,0-9.7,4.12-9.7,9.11v3.09h18.52V801.57z"/>
		<path class="st1" d="M601.78,848.9v-47.33c0-3.23-1.47-5.14-5.14-5.14c-3.82,0-10.88,2.65-15.43,5.14v47.33h-21.17v-71.58h15.73
			l2.2,5.44c8.82-4.26,20.29-6.91,28.52-6.91c12.2,0,16.46,9.11,16.46,22.93v50.12H601.78z"/>
		<path class="st1" d="M637.65,802.31c0-16.9,7.35-26.46,24.11-26.46c5.88,0,13.38,0.88,18.23,2.06v-29.84l21.17-2.94V848.9h-16.61
			l-2.21-5.73c-5,3.23-14.26,7.2-22.05,7.2c-14.55,0-22.64-8.97-22.64-26.46V802.31z M679.98,795.99
			c-3.67-0.88-9.11-1.76-13.52-1.76c-5.59,0-7.64,3.38-7.64,8.08v21.61c0,5,2.06,8.08,7.64,8.08c4.85,0,10.44-2.94,13.52-5.59
			V795.99z"/>
		<path class="st1" d="M716.58,821.42v-16.61c0-14.7,6.91-28.96,32.34-28.96s32.34,14.26,32.34,28.96v16.61
			c0,14.7-6.91,28.96-32.34,28.96S716.58,836.12,716.58,821.42z M760.09,822.01v-17.79c0-6.76-3.53-10.58-11.17-10.58
			s-11.17,3.82-11.17,10.58v17.79c0,6.76,3.53,10.58,11.17,10.58S760.09,828.77,760.09,822.01z"/>
		<path class="st1" d="M865.92,848.9l-1.47-4.56c-8.23,4.56-15.58,6.03-20.43,6.03c-13.23,0-18.67-9.55-18.67-21.75
			c0-14.41,6.61-20.14,21.31-20.14h15.43v-5.44c0-7.35-1.32-9.85-12.64-9.85c-6.32,0-12.64,0.73-19.4,2.06l-2.79-15.88
			c6.76-2.06,17.49-3.53,25.72-3.53c24.84,0,30.28,7.5,30.28,27.34v45.71H865.92z M862.1,823.18h-10.14c-4.56,0-6.32,1.18-6.32,5.14
			s1.62,5.58,5.73,5.58c4.41,0,7.5-1.03,10.73-2.5V823.18z"/>
		<path class="st1" d="M316.03,941.33c0,8.52,2.79,13.52,13.67,13.52c7.06,0,16.76-0.88,25.28-2.35l3.09,19.25
			c-9.7,2.06-18.52,3.09-28.37,3.09c-24.69,0-35.72-12.2-35.72-29.99v-40.86c0-17.79,11.02-29.99,35.72-29.99
			c9.85,0,18.67,1.03,28.37,3.09l-3.09,19.26c-8.53-1.47-18.23-2.35-25.28-2.35c-10.88,0-13.67,5-13.67,13.52V941.33z"/>
		<path class="st1" d="M369.09,945.89v-16.61c0-14.7,6.91-28.96,32.34-28.96c25.43,0,32.34,14.26,32.34,28.96v16.61
			c0,14.7-6.91,28.96-32.34,28.96C376,974.84,369.09,960.58,369.09,945.89z M412.6,946.47v-17.79c0-6.76-3.53-10.58-11.17-10.58
			c-7.64,0-11.17,3.82-11.17,10.58v17.79c0,6.76,3.53,10.58,11.17,10.58C409.08,957.06,412.6,953.23,412.6,946.47z"/>
		<path class="st1" d="M479.48,973.37h-27.05l-22.49-71.58h21.46l14.55,50.71l14.55-50.71h21.46L479.48,973.37z"/>
		<path class="st1" d="M507.71,892.82v-22.49h21.17v22.49H507.71z M507.71,973.37v-71.58h21.17v71.58H507.71z"/>
		<path class="st1" d="M542.98,926.78c0-16.9,7.35-26.46,24.11-26.46c5.88,0,13.38,0.88,18.23,2.06v-29.84l21.17-2.94v103.77h-16.61
			l-2.21-5.73c-5,3.23-14.26,7.2-22.05,7.2c-14.55,0-22.64-8.97-22.64-26.46V926.78z M585.32,920.46
			c-3.67-0.88-9.11-1.76-13.52-1.76c-5.59,0-7.64,3.38-7.64,8.08v21.61c0,5,2.06,8.08,7.64,8.08c4.85,0,10.44-2.94,13.52-5.59
			V920.46z"/>
		<path class="st1" d="M621.92,941.04V923.4h37.92v17.64H621.92z"/>
		<path class="st1" d="M691.44,973.37v-70.41l-16.61,8.97l-9.11-17.49l27.78-16.02h19.11v94.95H691.44z"/>
		<path class="st1" d="M790.96,905.32v35.87c0,26.6-18.08,33.66-45.13,33.66c-4.85,0-10.73-0.59-14.4-1.18l1.18-17.34
			c2.79,0.29,6.61,0.74,10.29,0.74c19.11,0,26.9-3.53,26.9-15.73v-7.2c-5.29,1.62-10.14,2.21-16.17,2.21
			c-16.46,0-24.84-7.06-24.84-24.69v-6.32c0-14.7,5.73-28.37,31.16-28.37S790.96,889.88,790.96,905.32z M749.95,904.29v6.47
			c0,6.03,3.38,7.35,7.2,7.35c4.85,0,9.11-1.03,12.64-2.65v-11.17c0-6.76-2.2-9.11-9.85-9.11S749.95,897.97,749.95,904.29z"/>
	</g>
	<g class="st2">
		<defs>
			<rect id="SVGID_1_" x="555.66" y="309.21" class="st2" width="249.78" height="248.9"/>
		</defs>
		<clipPath id="SVGID_2_">
			<use xlink:href="#SVGID_1_"  style="overflow:visible;"/>
		</clipPath>
		<g class="st3">
			<path class="st4" d="M804.14,476.49c-3.53-8.33-13.03-12.18-21.37-8.76c-2.48,1.06-4.56,2.68-6.16,4.63l-26.1-10.62
				c5.55-16.23,5.88-34.39-0.32-51.59l0.11-0.11l14.96-6.3c0.21-0.11,0.43-0.21,0.64-0.32c3.42,3.74,8.86,5.23,13.78,3.1
				c6.19-2.56,9.19-9.72,6.51-16.02c-2.56-6.19-9.72-9.08-16.02-6.41c-4.91,2.03-7.69,6.94-7.37,11.96
				c-0.21,0.11-0.43,0.11-0.64,0.21l-15.06,6.3l-0.11,0.11c-7.9-16.55-21.15-28.94-36.64-36.31v-0.1l7.69-18.8
				c0.11-0.22,0.11-0.32,0.21-0.53c2.78,0.43,5.66,0.1,8.55-1.07c8.23-3.52,12.07-13.03,8.65-21.36
				c-3.52-8.22-13.03-12.17-21.36-8.65c-8.23,3.52-12.18,13.03-8.65,21.36c1.17,2.78,2.99,5.02,5.34,6.73
				c-0.11,0.11-0.21,0.32-0.21,0.43l-7.69,18.9h-0.11c-16.13-5.55-34.29-5.87-51.49,0.32l-0.11-0.11l-15.59-37.06
				c2.67-2.88,3.63-7.16,2.03-11c-2.24-5.13-8.23-7.58-13.35-5.45c-5.23,2.24-7.59,8.22-5.45,13.35c1.6,3.85,5.34,6.2,9.29,6.2
				l15.6,37.17v0.11c-16.45,7.9-28.95,21.15-36.21,36.63h-0.11l-18.8-7.69c-0.22-0.11-0.32-0.11-0.53-0.21
				c0.43-2.78,0.11-5.66-1.07-8.44c-3.52-8.33-13.03-12.18-21.36-8.76c-8.33,3.52-12.18,13.03-8.65,21.36
				c3.42,8.23,13.03,12.18,21.26,8.65c2.78-1.18,5.13-2.99,6.84-5.34c0.11,0.11,0.21,0.21,0.43,0.21l18.8,7.69l0.11,0.11
				c-5.66,16.23-5.87,34.28,0.32,51.58h-0.11l-14.95,6.3c-0.21,0.11-0.43,0.21-0.64,0.32c-3.42-3.74-8.87-5.13-13.78-3.1
				c-6.19,2.67-9.19,9.83-6.52,16.02c2.56,6.19,9.72,9.08,15.92,6.52c5.02-2.14,7.8-7.05,7.48-12.07c0.21,0,0.43-0.11,0.64-0.21
				l15.06-6.3h0.11c7.91,16.45,21.15,28.94,36.64,36.21v0.11l-7.69,18.9c-0.11,0.11-0.11,0.21-0.21,0.43
				c-2.78-0.43-5.66,0-8.55,1.17c-8.23,3.42-12.18,13.03-8.65,21.25c3.52,8.33,13.03,12.18,21.36,8.65
				c8.23-3.42,12.18-13.03,8.65-21.25c-1.18-2.78-3.1-5.13-5.34-6.73c0.11-0.21,0.21-0.32,0.21-0.53l7.69-18.8v-0.11
				c16.24,5.66,34.39,5.87,51.59-0.32l0.11,0.11l4.81,11.43c-3.74,3.42-5.13,8.87-3.1,13.78c2.67,6.2,9.83,9.08,16.02,6.52
				c6.19-2.67,9.19-9.83,6.52-16.02c-2.03-4.91-6.95-7.69-11.96-7.47l-4.81-11.43c16.45-8.01,28.95-21.15,36.21-36.74l25.74,10.55
				c-0.56,3.03-0.3,6.25,0.96,9.31c3.53,8.22,13.03,12.18,21.37,8.65C803.72,494.33,807.67,484.71,804.14,476.49 M719.31,384.49
				c0.44-0.37,0.92-0.63,1.43-0.8c0.51-0.16,1.05-0.23,1.59-0.29c0.51,0.17,0.98,0.24,1.52,0.52c0.4,0.21,0.87,0.62,1.21,0.96
				c0.7,0.78,1.06,1.9,1.06,2.91c-0.14,0.61-0.21,1.08-0.49,1.62c-0.79,1.38-2.28,2.31-3.9,2.16c-1.05-0.11-2.09-0.56-2.79-1.34
				c-0.37-0.44-0.63-0.92-0.8-1.43c-0.17-0.51-0.23-1.05-0.19-1.62C718.04,386.13,718.52,385.19,719.31,384.49 M695.1,387.73
				c0.44-0.37,0.92-0.64,1.43-0.8c0.51-0.17,1.05-0.23,1.59-0.29c0.47,0.07,0.97,0.25,1.51,0.52c0.4,0.21,0.84,0.51,1.21,0.96
				c0.7,0.78,1.06,1.9,1.06,2.91c-0.14,0.61-0.21,1.08-0.52,1.52c-0.76,1.48-2.25,2.41-3.87,2.26c-1.15-0.08-2.09-0.56-2.79-1.34
				c-0.37-0.44-0.63-0.92-0.8-1.42c-0.17-0.51-0.23-1.05-0.19-1.62C693.83,389.37,694.31,388.43,695.1,387.73 M658.96,375.64
				c5.07-4.45,12.77-3.91,17.15,1.29c4.45,5.07,3.81,12.8-1.29,17.15c-5.07,4.45-12.77,3.91-17.15-1.3
				C653.22,387.71,653.75,380.02,658.96,375.64 M632.16,384.77c0.34-0.34,0.82-0.6,1.32-0.77c0.51-0.17,1.05-0.23,1.62-0.19
				c0.57,0.04,1.08,0.21,1.48,0.42c0.54,0.27,0.97,0.58,1.34,1.02c0.6,0.82,1.03,1.8,0.95,2.95c-0.07,0.47-0.24,0.98-0.52,1.52
				c-0.65,1.45-2.28,2.31-3.87,2.26c-1.05-0.11-2.12-0.66-2.82-1.44c-0.23-0.37-0.5-0.85-0.67-1.36c-0.16-0.51-0.33-1.01-0.29-1.59
				C630.83,386.55,631.38,385.47,632.16,384.77 M616.21,422.84c0.44-0.37,0.92-0.63,1.43-0.8c0.51-0.17,1.05-0.23,1.52-0.15
				c0.58,0.04,1.08,0.21,1.49,0.42c0.54,0.28,0.97,0.58,1.31,0.92c0.73,0.89,1.06,1.9,0.99,3.05c-0.07,0.47-0.25,0.98-0.42,1.48
				c-0.75,1.48-2.28,2.31-3.97,2.3c-1.05-0.11-2.02-0.69-2.73-1.48c-0.37-0.44-0.63-0.92-0.77-1.32c-0.2-0.61-0.23-1.05-0.29-1.59
				C614.88,424.62,615.43,423.54,616.21,422.84 M632.72,460.27c-5.1,4.35-12.8,3.81-17.15-1.29c-4.48-5.17-3.84-12.9,1.26-17.25
				c5.07-4.45,12.8-3.81,17.15,1.29C638.43,448.09,637.89,455.79,632.72,460.27 M647.76,487.62c-3.44,2.91-8.6,2.56-11.51-0.87
				c-2.88-3.33-2.53-8.5,0.9-11.41c3.3-2.98,8.5-2.53,11.38,0.8C651.44,479.58,651.09,484.75,647.76,487.62 M643.49,420.4
				c-2.88-3.33-2.53-8.5,0.9-11.41c3.33-2.88,8.5-2.53,11.38,0.81c2.91,3.44,2.56,8.6-0.77,11.48
				C651.56,424.18,646.4,423.84,643.49,420.4 M660.17,441.05c-1.05-0.11-2.09-0.56-2.83-1.44c-0.33-0.34-0.5-0.85-0.66-1.36
				c-0.27-0.47-0.33-1.02-0.29-1.59c0.11-1.04,0.59-1.99,1.44-2.83c0.37-0.23,0.85-0.5,1.35-0.66c0.51-0.17,1.05-0.23,1.59-0.29
				c0.47,0.07,1.08,0.21,1.52,0.52c0.51,0.17,0.94,0.48,1.31,0.92c0.6,0.82,0.96,1.93,0.95,2.95c-0.04,0.57-0.21,1.08-0.52,1.51
				C663.39,440.23,661.79,441.19,660.17,441.05 M669.16,497.53c-0.75,1.48-2.28,2.31-3.97,2.3c-1.05-0.11-2.02-0.69-2.73-1.48
				c-0.37-0.44-0.63-0.92-0.8-1.42c-0.17-0.51-0.23-1.05-0.26-1.49c0.11-1.05,0.66-2.12,1.44-2.83c0.44-0.37,0.92-0.63,1.42-0.8
				c0.51-0.17,1.05-0.23,1.52-0.16c0.58,0.04,1.08,0.21,1.48,0.42c0.54,0.27,0.97,0.58,1.31,0.92c0.73,0.88,1.06,1.9,0.99,3.05
				C669.5,496.52,669.33,497.03,669.16,497.53 M686.6,430.46c-3.44,2.91-8.5,2.53-11.41-0.91c-3.01-3.41-2.53-8.5,0.81-11.38
				c3.4-3.01,8.46-2.63,11.48,0.77C690.38,422.38,690.01,427.45,686.6,430.46 M704.62,493.68c-3.43,2.91-8.5,2.53-11.51-0.88
				c-2.88-3.33-2.53-8.5,0.91-11.41c3.33-2.88,8.5-2.53,11.41,0.91C708.4,485.6,707.96,490.8,704.62,493.68 M709.56,452.1
				c-0.76,1.48-2.28,2.31-3.87,2.26c-1.14-0.08-2.12-0.66-2.82-1.44c-0.37-0.44-0.63-0.92-0.8-1.43c-0.16-0.51-0.23-1.05-0.16-1.52
				c0.11-1.04,0.56-2.09,1.34-2.79c0.44-0.37,0.92-0.63,1.42-0.8c0.51-0.17,1.05-0.23,1.62-0.19c0.47,0.07,0.98,0.25,1.48,0.42
				c0.44,0.31,0.87,0.61,1.21,0.95c0.74,0.89,1.06,1.9,1.09,3.02C709.9,451.09,709.83,451.56,709.56,452.1 M705.91,427.34
				c-4.35-5.1-3.81-12.8,1.29-17.15c5.07-4.45,12.77-3.91,17.25,1.26c4.35,5.1,3.81,12.8-1.29,17.15
				C718.1,433.05,710.36,432.41,705.91,427.34 M735.78,474.82c-5.07,4.45-12.77,3.91-17.25-1.26c-4.35-5.1-3.81-12.8,1.29-17.15
				c5.07-4.45,12.8-3.81,17.25,1.26C741.42,462.77,740.89,470.47,735.78,474.82 M746.74,432.75c-0.75,1.48-2.28,2.31-3.97,2.3
				c-1.04-0.11-2.02-0.69-2.72-1.48c-0.37-0.44-0.63-0.92-0.8-1.43c-0.17-0.51-0.33-1.02-0.26-1.49c0.08-1.15,0.66-2.12,1.44-2.82
				c0.34-0.33,0.82-0.6,1.32-0.77c0.51-0.17,1.05-0.23,1.62-0.19c0.58,0.04,1.08,0.21,1.48,0.42c0.54,0.27,0.98,0.58,1.31,0.92
				c0.74,0.88,1.07,1.9,0.99,3.05C747.08,431.74,746.91,432.25,746.74,432.75"/>
		</g>
		<g class="st3">
			<path class="st5" d="M724.45,411.45c-4.48-5.17-12.18-5.71-17.25-1.26c-5.1,4.35-5.64,12.04-1.29,17.15
				c4.45,5.07,12.18,5.71,17.25,1.26C728.27,424.25,728.8,416.56,724.45,411.45"/>
		</g>
		<g class="st3">
			<path class="st5" d="M633.98,443.02c-4.35-5.11-12.08-5.74-17.15-1.29c-5.1,4.35-5.74,12.08-1.26,17.25
				c4.35,5.1,12.04,5.64,17.15,1.29C637.89,455.79,638.43,448.09,633.98,443.02"/>
		</g>
		<g class="st3">
			<path class="st5" d="M694.71,393.47c0.7,0.78,1.64,1.26,2.79,1.34c1.62,0.15,3.12-0.78,3.87-2.26c0.31-0.44,0.38-0.91,0.52-1.52
				c0.01-1.01-0.35-2.13-1.06-2.91c-0.37-0.44-0.81-0.75-1.21-0.96c-0.54-0.27-1.04-0.45-1.51-0.52c-0.54,0.06-1.08,0.12-1.59,0.29
				c-0.51,0.17-0.98,0.43-1.43,0.8c-0.78,0.7-1.26,1.64-1.37,2.69c-0.04,0.57,0.02,1.11,0.19,1.62
				C694.08,392.55,694.34,393.03,694.71,393.47"/>
		</g>
		<g class="st3">
			<path class="st5" d="M631.68,390.54c0.7,0.78,1.78,1.33,2.82,1.44c1.59,0.05,3.21-0.82,3.87-2.26c0.27-0.54,0.45-1.04,0.52-1.52
				c0.08-1.15-0.35-2.13-0.95-2.95c-0.37-0.44-0.8-0.75-1.34-1.03c-0.4-0.21-0.91-0.38-1.48-0.42c-0.58-0.04-1.12,0.02-1.62,0.19
				c-0.51,0.16-0.98,0.43-1.32,0.77c-0.78,0.7-1.33,1.78-1.44,2.83c-0.04,0.57,0.12,1.08,0.29,1.59
				C631.18,389.69,631.44,390.17,631.68,390.54"/>
		</g>
		<g class="st3">
			<path class="st5" d="M667.28,492.08c-0.4-0.21-0.91-0.38-1.48-0.42c-0.47-0.07-1.01-0.01-1.52,0.16
				c-0.51,0.16-0.98,0.43-1.42,0.8c-0.78,0.7-1.33,1.78-1.44,2.82c0.03,0.44,0.09,0.98,0.26,1.49c0.16,0.51,0.43,0.98,0.8,1.42
				c0.7,0.79,1.68,1.37,2.72,1.48c1.69,0.01,3.22-0.82,3.97-2.3c0.17-0.51,0.35-1.01,0.42-1.48c0.08-1.15-0.25-2.16-0.99-3.05
				C668.25,492.66,667.81,492.35,667.28,492.08"/>
		</g>
		<g class="st3">
			<path class="st5" d="M615.82,428.58c0.7,0.78,1.68,1.36,2.72,1.47c1.69,0.01,3.22-0.82,3.97-2.3c0.17-0.51,0.34-1.01,0.42-1.48
				c0.08-1.15-0.25-2.16-0.99-3.05c-0.34-0.34-0.77-0.65-1.31-0.92c-0.41-0.21-0.91-0.38-1.48-0.42c-0.47-0.07-1.01-0.01-1.52,0.16
				c-0.51,0.17-0.98,0.43-1.43,0.8c-0.78,0.7-1.33,1.78-1.44,2.83c0.06,0.54,0.09,0.98,0.29,1.59
				C615.19,427.66,615.46,428.14,615.82,428.58"/>
		</g>
		<g class="st3">
			<path class="st5" d="M719.82,456.41c-5.1,4.35-5.64,12.05-1.29,17.15c4.48,5.17,12.18,5.71,17.25,1.26
				c5.1-4.35,5.64-12.04,1.29-17.15C732.62,452.6,724.89,451.96,719.82,456.41"/>
		</g>
		<g class="st3">
			<path class="st5" d="M744.86,427.3c-0.4-0.21-0.91-0.38-1.48-0.42c-0.58-0.04-1.11,0.03-1.62,0.19
				c-0.51,0.17-0.98,0.43-1.32,0.77c-0.78,0.7-1.36,1.68-1.44,2.82c-0.07,0.47,0.09,0.98,0.26,1.49c0.16,0.51,0.43,0.98,0.8,1.43
				c0.7,0.78,1.68,1.37,2.72,1.48c1.69,0.01,3.22-0.82,3.97-2.3c0.17-0.5,0.35-1.01,0.42-1.48c0.08-1.15-0.25-2.16-0.99-3.05
				C745.83,427.88,745.4,427.57,744.86,427.3"/>
		</g>
		<g class="st3">
			<path class="st5" d="M718.92,390.23c0.7,0.78,1.74,1.23,2.79,1.34c1.62,0.15,3.11-0.79,3.9-2.16c0.27-0.54,0.35-1.01,0.49-1.62
				c0.01-1.01-0.35-2.13-1.06-2.91c-0.34-0.34-0.81-0.75-1.21-0.96c-0.54-0.27-1.01-0.35-1.52-0.52c-0.54,0.06-1.08,0.13-1.59,0.29
				c-0.51,0.16-0.98,0.43-1.43,0.8c-0.78,0.7-1.26,1.64-1.37,2.69c-0.04,0.57,0.02,1.12,0.19,1.62
				C718.29,389.31,718.55,389.78,718.92,390.23"/>
		</g>
		<g class="st3">
			<path class="st5" d="M674.81,394.08c5.1-4.35,5.74-12.08,1.29-17.15c-4.38-5.21-12.08-5.74-17.15-1.29
				c-5.2,4.38-5.74,12.08-1.29,17.15C662.05,397.99,669.74,398.53,674.81,394.08"/>
		</g>
		<g class="st3">
			<path class="st5" d="M676,418.17c-3.33,2.88-3.82,7.97-0.81,11.38c2.91,3.43,7.97,3.82,11.41,0.91c3.4-3.01,3.78-8.08,0.87-11.51
				C684.46,415.54,679.4,415.16,676,418.17"/>
		</g>
		<g class="st3">
			<path class="st5" d="M694.02,481.39c-3.44,2.91-3.78,8.08-0.91,11.41c3.01,3.41,8.08,3.78,11.51,0.88
				c3.33-2.88,3.78-8.08,0.8-11.38C702.52,478.86,697.35,478.51,694.02,481.39"/>
		</g>
		<g class="st3">
			<path class="st5" d="M637.15,475.34c-3.44,2.91-3.78,8.07-0.91,11.41c2.91,3.44,8.07,3.78,11.51,0.87
				c3.33-2.88,3.68-8.04,0.77-11.48C645.65,472.81,640.45,472.36,637.15,475.34"/>
		</g>
		<g class="st3">
			<path class="st5" d="M664.04,438.78c0.31-0.44,0.48-0.94,0.52-1.52c0.01-1.01-0.35-2.13-0.95-2.95c-0.37-0.44-0.8-0.75-1.31-0.92
				c-0.44-0.31-1.04-0.45-1.51-0.52c-0.54,0.06-1.08,0.13-1.59,0.29c-0.51,0.17-0.98,0.43-1.35,0.66c-0.85,0.84-1.33,1.78-1.44,2.83
				c-0.04,0.57,0.02,1.12,0.29,1.59c0.16,0.51,0.33,1.01,0.66,1.36c0.74,0.88,1.78,1.33,2.83,1.44
				C661.79,441.19,663.39,440.23,664.04,438.78"/>
		</g>
		<g class="st3">
			<path class="st5" d="M655.77,409.79c-2.88-3.33-8.04-3.68-11.38-0.81c-3.44,2.91-3.78,8.08-0.91,11.41
				c2.91,3.44,8.07,3.78,11.51,0.87C658.33,418.4,658.68,413.23,655.77,409.79"/>
		</g>
		<g class="st3">
			<path class="st5" d="M707.78,446.61c-0.51-0.17-1.01-0.35-1.48-0.42c-0.58-0.04-1.12,0.02-1.62,0.19
				c-0.51,0.17-0.98,0.43-1.42,0.8c-0.78,0.7-1.23,1.75-1.34,2.79c-0.07,0.48-0.01,1.01,0.16,1.52c0.17,0.51,0.43,0.98,0.8,1.43
				c0.7,0.78,1.68,1.37,2.82,1.44c1.59,0.05,3.11-0.78,3.87-2.26c0.28-0.54,0.35-1.01,0.52-1.52c-0.03-1.12-0.35-2.13-1.09-3.02
				C708.65,447.23,708.22,446.92,707.78,446.61"/>
		</g>
	</g>
	<g class="st2">
		<defs>
			<rect id="SVGID_3_" x="331.14" y="177.17" class="st2" width="190.64" height="192.19"/>
		</defs>
		<clipPath id="SVGID_4_">
			<use xlink:href="#SVGID_3_"  style="overflow:visible;"/>
		</clipPath>
		<g class="st6">
			<path class="st4" d="M457.69,178.22c-6.35,2.78-9.21,10.1-6.51,16.45c0.84,1.89,2.09,3.47,3.61,4.68l-7.89,20.09
				c-12.49-4.11-26.4-4.19-39.52,0.72l-0.08-0.08l-4.97-11.4c-0.08-0.16-0.17-0.33-0.25-0.49c2.83-2.65,3.93-6.84,2.25-10.58
				c-2.02-4.72-7.53-6.95-12.33-4.85c-4.72,2.02-6.86,7.53-4.76,12.33c1.6,3.74,5.39,5.83,9.23,5.54c0.08,0.16,0.08,0.33,0.17,0.49
				l4.97,11.48l0.08,0.08c-12.61,6.21-21.98,16.47-27.49,28.41l-0.08,0l-14.47-5.72c-0.17-0.08-0.25-0.08-0.41-0.16
				c0.3-2.13,0.03-4.34-0.9-6.54c-2.78-6.27-10.09-9.13-16.45-6.43c-6.27,2.78-9.21,10.1-6.43,16.45
				c2.78,6.27,10.09,9.21,16.44,6.43c2.12-0.92,3.82-2.34,5.11-4.15c0.08,0.08,0.25,0.16,0.33,0.16l14.55,5.72l0,0.08
				c-4.11,12.41-4.19,26.32,0.72,39.44l-0.08,0.08l-28.25,12.29c-2.23-2.02-5.52-2.72-8.45-1.45c-3.91,1.77-5.73,6.37-4.05,10.28
				c1.77,3.99,6.37,5.74,10.28,4.05c2.93-1.26,4.7-4.15,4.66-7.18l28.33-12.29l0.08,0c6.21,12.53,16.47,21.99,28.4,27.41l0,0.08
				l-5.72,14.48c-0.08,0.16-0.08,0.25-0.16,0.41c-2.13-0.3-4.34-0.03-6.45,0.9c-6.35,2.78-9.21,10.09-6.51,16.45
				c2.78,6.35,10.1,9.21,16.44,6.43c6.27-2.69,9.21-10.1,6.43-16.37c-0.93-2.12-2.34-3.9-4.15-5.19c0.08-0.08,0.16-0.17,0.16-0.33
				l5.72-14.47l0.08-0.08c12.49,4.19,26.32,4.19,39.52-0.72l0,0.08l4.97,11.4c0.08,0.16,0.17,0.33,0.25,0.49
				c-2.83,2.65-3.85,6.84-2.25,10.58c2.1,4.72,7.61,6.95,12.33,4.85c4.72-2.02,6.87-7.53,4.85-12.25c-1.68-3.83-5.47-5.91-9.31-5.62
				c0-0.17-0.09-0.33-0.17-0.49l-4.97-11.48v-0.08c12.53-6.21,21.98-16.47,27.4-28.4l0.08,0l14.55,5.72
				c0.08,0.08,0.16,0.08,0.33,0.16c-0.3,2.13,0.05,4.34,0.98,6.54c2.7,6.27,10.1,9.21,16.36,6.43c6.35-2.78,9.21-10.09,6.43-16.45
				c-2.69-6.27-10.09-9.21-16.36-6.44c-2.12,0.93-3.9,2.42-5.11,4.15c-0.16-0.08-0.25-0.16-0.41-0.16l-14.47-5.72l-0.08,0
				c4.19-12.49,4.19-26.41-0.72-39.53l0.08-0.08l8.71-3.79c2.65,2.83,6.84,3.85,10.58,2.25c4.72-2.1,6.86-7.61,4.85-12.34
				c-2.1-4.72-7.61-6.95-12.34-4.85c-3.74,1.6-5.83,5.39-5.62,9.23l-8.71,3.79c-6.29-12.53-16.47-21.98-28.48-27.41l7.85-19.82
				c2.32,0.41,4.79,0.17,7.12-0.82c6.27-2.78,9.21-10.1,6.43-16.45C471.36,178.38,463.96,175.44,457.69,178.22 M387.98,244.06
				c-0.29-0.34-0.5-0.7-0.62-1.09c-0.13-0.39-0.19-0.8-0.24-1.21c0.13-0.39,0.18-0.75,0.38-1.17c0.15-0.31,0.46-0.68,0.72-0.93
				c0.59-0.55,1.45-0.83,2.22-0.84c0.47,0.1,0.83,0.15,1.24,0.36c1.06,0.59,1.79,1.73,1.69,2.97c-0.08,0.8-0.41,1.61-1,2.15
				c-0.34,0.29-0.7,0.5-1.09,0.63c-0.39,0.13-0.8,0.19-1.24,0.16C389.25,245.01,388.53,244.65,387.98,244.06 M390.69,262.58
				c-0.29-0.34-0.5-0.7-0.63-1.09s-0.18-0.8-0.24-1.22c0.05-0.36,0.18-0.75,0.38-1.17c0.15-0.31,0.39-0.65,0.72-0.93
				c0.59-0.55,1.45-0.83,2.22-0.84c0.47,0.1,0.83,0.15,1.17,0.38c1.14,0.56,1.87,1.7,1.77,2.94c-0.05,0.88-0.41,1.61-1,2.15
				c-0.34,0.29-0.7,0.5-1.08,0.63c-0.39,0.13-0.8,0.19-1.24,0.16C391.96,263.53,391.23,263.17,390.69,262.58 M381.75,290.38
				c-3.45-3.84-3.11-9.75,0.83-13.15c3.85-3.46,9.77-3.04,13.15,0.83c3.46,3.84,3.11,9.75-0.84,13.15
				C391.06,294.66,385.16,294.32,381.75,290.38 M389,310.82c-0.26-0.26-0.47-0.62-0.6-1.01c-0.13-0.39-0.18-0.8-0.16-1.24
				c0.02-0.44,0.15-0.83,0.31-1.14c0.21-0.41,0.44-0.75,0.77-1.04c0.62-0.47,1.37-0.81,2.25-0.76c0.36,0.05,0.75,0.18,1.17,0.38
				c1.11,0.49,1.79,1.73,1.77,2.95c-0.08,0.8-0.49,1.63-1.08,2.18c-0.28,0.18-0.64,0.39-1.03,0.52c-0.39,0.13-0.78,0.26-1.21,0.24
				C390.37,311.83,389.54,311.41,389,310.82 M418.31,322.69c-0.29-0.34-0.49-0.7-0.63-1.09c-0.13-0.39-0.18-0.8-0.13-1.16
				c0.02-0.44,0.15-0.83,0.31-1.14c0.21-0.41,0.44-0.75,0.69-1.01c0.67-0.57,1.45-0.83,2.33-0.79c0.36,0.05,0.75,0.18,1.14,0.31
				c1.14,0.56,1.79,1.73,1.8,3.02c-0.07,0.8-0.51,1.55-1.11,2.1c-0.33,0.28-0.7,0.49-1.01,0.6c-0.46,0.16-0.8,0.18-1.22,0.24
				C419.68,323.7,418.85,323.29,418.31,322.69 M446.84,309.7c3.38,3.87,3.04,9.77-0.83,13.15c-3.92,3.48-9.85,3.06-13.23-0.81
				c-3.46-3.84-3.04-9.77,0.83-13.15C437.45,305.44,443.35,305.78,446.84,309.7 M467.65,297.93c2.26,2.6,2.04,6.57-0.56,8.83
				c-2.53,2.23-6.49,2.02-8.75-0.59c-2.31-2.5-2.02-6.49,0.51-8.72C461.46,295.18,465.42,295.4,467.65,297.93 M416.19,301.82
				c-2.53,2.23-6.49,2.02-8.75-0.59c-2.23-2.53-2.02-6.49,0.51-8.72c2.61-2.26,6.57-2.04,8.8,0.49
				C419.01,295.6,418.8,299.56,416.19,301.82 M431.85,288.85c-0.07,0.8-0.41,1.61-1.08,2.18c-0.26,0.26-0.65,0.39-1.03,0.52
				c-0.36,0.21-0.78,0.26-1.22,0.24c-0.8-0.08-1.53-0.43-2.18-1.08c-0.18-0.28-0.39-0.65-0.52-1.03c-0.13-0.39-0.18-0.8-0.24-1.22
				c0.05-0.36,0.15-0.83,0.38-1.17c0.13-0.39,0.36-0.73,0.69-1.01c0.62-0.47,1.47-0.76,2.25-0.76c0.44,0.02,0.83,0.15,1.17,0.38
				C431.2,286.39,431.95,287.61,431.85,288.85 M475.05,281.44c1.14,0.56,1.79,1.73,1.8,3.02c-0.08,0.8-0.51,1.55-1.11,2.1
				c-0.34,0.29-0.7,0.5-1.08,0.63c-0.39,0.13-0.8,0.18-1.14,0.21c-0.8-0.07-1.63-0.49-2.18-1.08c-0.29-0.33-0.49-0.7-0.62-1.08
				c-0.13-0.39-0.19-0.8-0.13-1.16c0.02-0.44,0.15-0.83,0.31-1.14c0.21-0.41,0.44-0.75,0.69-1.01c0.67-0.57,1.45-0.83,2.33-0.79
				C474.27,281.19,474.66,281.32,475.05,281.44 M423.5,268.69c2.26,2.61,2.02,6.49-0.59,8.75c-2.58,2.34-6.49,2.02-8.72-0.51
				c-2.34-2.58-2.09-6.46,0.49-8.8C417.28,265.87,421.16,266.11,423.5,268.69 M471.77,254.31c2.26,2.6,2.02,6.49-0.57,8.83
				c-2.53,2.24-6.49,2.02-8.75-0.59c-2.23-2.53-2.02-6.49,0.59-8.75C465.55,251.49,469.54,251.78,471.77,254.31 M439.87,250.91
				c1.14,0.57,1.79,1.73,1.77,2.94c-0.05,0.88-0.49,1.63-1.08,2.18c-0.34,0.29-0.7,0.49-1.09,0.63c-0.39,0.13-0.8,0.18-1.17,0.13
				c-0.8-0.07-1.61-0.41-2.15-1c-0.29-0.34-0.49-0.7-0.62-1.09c-0.13-0.39-0.18-0.8-0.16-1.24c0.05-0.36,0.18-0.75,0.31-1.14
				c0.23-0.34,0.46-0.67,0.72-0.93c0.67-0.57,1.45-0.83,2.3-0.86C439.09,250.65,439.46,250.7,439.87,250.91 M420.94,253.93
				c-3.87,3.38-9.77,3.04-13.15-0.83c-3.46-3.84-3.11-9.74,0.81-13.23c3.87-3.38,9.77-3.04,13.15,0.83
				C425.2,244.54,424.78,250.47,420.94,253.93 M457.04,230.61c3.46,3.84,3.11,9.75-0.81,13.23c-3.87,3.38-9.77,3.04-13.15-0.83
				c-3.46-3.84-3.04-9.77,0.81-13.23C447.76,226.4,453.66,226.74,457.04,230.61 M424.71,222.6c1.14,0.56,1.79,1.73,1.8,3.02
				c-0.08,0.8-0.51,1.56-1.11,2.1c-0.33,0.29-0.7,0.49-1.08,0.62c-0.39,0.13-0.78,0.26-1.14,0.21c-0.88-0.05-1.63-0.49-2.18-1.08
				c-0.26-0.26-0.47-0.62-0.6-1.01c-0.13-0.39-0.19-0.8-0.16-1.24c0.02-0.44,0.15-0.83,0.31-1.14c0.2-0.42,0.44-0.75,0.69-1.01
				c0.67-0.57,1.45-0.83,2.33-0.78C423.93,222.34,424.32,222.47,424.71,222.6"/>
		</g>
		<g class="st6">
			<path class="st5" d="M408.59,239.87c-3.92,3.48-4.26,9.39-0.81,13.23c3.38,3.87,9.28,4.21,13.15,0.83
				c3.84-3.45,4.26-9.39,0.81-13.23C418.37,236.83,412.46,236.49,408.59,239.87"/>
		</g>
		<g class="st6">
			<path class="st5" d="M433.61,308.9c-3.87,3.38-4.29,9.31-0.83,13.15c3.38,3.87,9.31,4.29,13.23,0.81
				c3.87-3.38,4.21-9.28,0.83-13.15C443.35,305.78,437.45,305.44,433.61,308.9"/>
		</g>
		<g class="st6">
			<path class="st5" d="M395.09,262.82c0.59-0.54,0.95-1.27,1-2.15c0.1-1.24-0.63-2.38-1.77-2.94c-0.34-0.23-0.7-0.28-1.17-0.38
				c-0.78,0-1.63,0.29-2.22,0.84c-0.34,0.29-0.57,0.62-0.72,0.93c-0.21,0.42-0.33,0.8-0.38,1.17c0.05,0.41,0.11,0.83,0.24,1.22
				c0.13,0.39,0.34,0.75,0.63,1.09c0.54,0.59,1.27,0.95,2.07,1.03c0.44,0.02,0.85-0.03,1.24-0.16
				C394.39,263.31,394.75,263.11,395.09,262.82"/>
		</g>
		<g class="st6">
			<path class="st5" d="M393.42,311.14c0.6-0.54,1-1.37,1.08-2.18c0.02-1.22-0.66-2.46-1.77-2.95c-0.41-0.2-0.8-0.33-1.17-0.38
				c-0.88-0.05-1.63,0.29-2.25,0.76c-0.34,0.29-0.57,0.62-0.77,1.04c-0.15,0.31-0.28,0.7-0.31,1.14c-0.02,0.44,0.03,0.86,0.16,1.24
				c0.13,0.39,0.34,0.75,0.6,1.01c0.55,0.59,1.38,1,2.18,1.08c0.44,0.03,0.83-0.1,1.21-0.24
				C392.78,311.53,393.14,311.32,393.42,311.14"/>
		</g>
		<g class="st6">
			<path class="st5" d="M470.89,282.93c-0.15,0.31-0.28,0.7-0.31,1.14c-0.05,0.36,0,0.78,0.13,1.16c0.13,0.39,0.34,0.75,0.62,1.09
				c0.55,0.59,1.38,1,2.18,1.08c0.33-0.03,0.75-0.08,1.14-0.21c0.39-0.13,0.75-0.34,1.08-0.63c0.6-0.55,1.03-1.3,1.11-2.1
				c-0.01-1.29-0.66-2.46-1.8-3.02c-0.39-0.13-0.78-0.26-1.14-0.31c-0.88-0.05-1.65,0.21-2.33,0.78
				C471.33,282.18,471.09,282.52,470.89,282.93"/>
		</g>
		<g class="st6">
			<path class="st5" d="M422.71,322.94c0.59-0.55,1.03-1.3,1.11-2.1c-0.01-1.29-0.66-2.46-1.8-3.02c-0.39-0.13-0.78-0.26-1.14-0.31
				c-0.88-0.05-1.65,0.22-2.33,0.79c-0.26,0.26-0.49,0.6-0.69,1.01c-0.16,0.31-0.28,0.7-0.31,1.14c-0.05,0.36,0,0.78,0.13,1.16
				c0.13,0.39,0.34,0.75,0.62,1.09c0.55,0.59,1.38,1,2.18,1.08c0.41-0.05,0.75-0.08,1.22-0.24
				C422.01,323.43,422.38,323.22,422.71,322.94"/>
		</g>
		<g class="st6">
			<path class="st5" d="M443.08,243c3.38,3.87,9.28,4.21,13.15,0.83c3.92-3.48,4.26-9.38,0.81-13.23
				c-3.38-3.87-9.28-4.21-13.15-0.83C440.04,233.23,439.62,239.16,443.08,243"/>
		</g>
		<g class="st6">
			<path class="st5" d="M420.55,224.09c-0.16,0.31-0.28,0.7-0.31,1.14c-0.02,0.44,0.03,0.85,0.16,1.24c0.13,0.39,0.34,0.75,0.6,1.01
				c0.55,0.59,1.3,1.03,2.18,1.08c0.36,0.05,0.75-0.08,1.14-0.21c0.39-0.13,0.75-0.34,1.08-0.62c0.59-0.55,1.03-1.3,1.11-2.1
				c0-1.29-0.66-2.46-1.8-3.02c-0.39-0.13-0.78-0.26-1.14-0.31c-0.88-0.05-1.65,0.21-2.33,0.78
				C420.98,223.34,420.75,223.67,420.55,224.09"/>
		</g>
		<g class="st6">
			<path class="st5" d="M392.38,244.3c0.59-0.54,0.93-1.35,1-2.15c0.1-1.24-0.63-2.38-1.69-2.97c-0.41-0.21-0.78-0.26-1.24-0.36
				c-0.78,0-1.63,0.29-2.22,0.84c-0.26,0.26-0.57,0.62-0.72,0.93c-0.21,0.41-0.26,0.78-0.38,1.17c0.05,0.41,0.11,0.83,0.24,1.21
				c0.13,0.39,0.34,0.75,0.62,1.09c0.54,0.59,1.27,0.95,2.07,1.03c0.44,0.03,0.85-0.03,1.24-0.16
				C391.68,244.79,392.05,244.59,392.38,244.3"/>
		</g>
		<g class="st6">
			<path class="st5" d="M395.74,278.06c-3.38-3.87-9.31-4.29-13.15-0.83c-3.95,3.4-4.29,9.31-0.83,13.15
				c3.4,3.95,9.31,4.29,13.15,0.83C398.85,287.8,399.19,281.9,395.74,278.06"/>
		</g>
		<g class="st6">
			<path class="st5" d="M414.19,276.93c2.24,2.53,6.14,2.85,8.72,0.51c2.61-2.26,2.85-6.14,0.59-8.75
				c-2.34-2.58-6.22-2.82-8.83-0.56C412.09,270.47,411.85,274.35,414.19,276.93"/>
		</g>
		<g class="st6">
			<path class="st5" d="M462.46,262.55c2.26,2.6,6.22,2.82,8.75,0.59c2.58-2.34,2.82-6.22,0.56-8.83c-2.23-2.53-6.22-2.82-8.72-0.51
				C460.44,256.06,460.22,260.02,462.46,262.55"/>
		</g>
		<g class="st6">
			<path class="st5" d="M458.34,306.17c2.26,2.61,6.22,2.82,8.75,0.59c2.61-2.26,2.82-6.22,0.56-8.83c-2.23-2.53-6.19-2.75-8.8-0.49
				C456.33,299.68,456.03,303.67,458.34,306.17"/>
		</g>
		<g class="st6">
			<path class="st5" d="M430.08,285.9c-0.34-0.23-0.72-0.36-1.17-0.38c-0.78,0-1.63,0.29-2.25,0.76c-0.34,0.29-0.57,0.62-0.7,1.01
				c-0.23,0.34-0.33,0.8-0.38,1.17c0.05,0.41,0.11,0.83,0.24,1.22c0.13,0.39,0.34,0.75,0.52,1.03c0.65,0.64,1.38,1,2.18,1.08
				c0.44,0.02,0.85-0.03,1.22-0.24c0.39-0.13,0.78-0.26,1.03-0.52c0.67-0.57,1-1.38,1.08-2.18
				C431.95,287.61,431.2,286.39,430.08,285.9"/>
		</g>
		<g class="st6">
			<path class="st5" d="M407.95,292.51c-2.53,2.23-2.75,6.2-0.51,8.72c2.26,2.61,6.22,2.82,8.75,0.59c2.6-2.26,2.82-6.22,0.56-8.83
				C414.52,290.46,410.56,290.25,407.95,292.51"/>
		</g>
		<g class="st6">
			<path class="st5" d="M435.68,252.32c-0.13,0.39-0.26,0.78-0.31,1.14c-0.02,0.44,0.03,0.86,0.16,1.24
				c0.13,0.39,0.34,0.75,0.63,1.09c0.54,0.59,1.35,0.93,2.15,1c0.36,0.05,0.78,0,1.17-0.13c0.39-0.13,0.75-0.34,1.09-0.63
				c0.59-0.55,1.03-1.3,1.08-2.18c0.02-1.22-0.63-2.38-1.77-2.94c-0.42-0.21-0.78-0.26-1.17-0.38c-0.86,0.03-1.63,0.29-2.3,0.86
				C436.15,251.65,435.92,251.98,435.68,252.32"/>
		</g>
	</g>
	<g class="st2">
		<defs>
			<rect id="SVGID_5_" x="479.59" y="500.68" class="st2" width="132.54" height="132.07"/>
		</defs>
		<clipPath id="SVGID_6_">
			<use xlink:href="#SVGID_5_"  style="overflow:visible;"/>
		</clipPath>
		<g class="st7">
			<path class="st4" d="M611.44,589.43c-1.87-4.42-6.92-6.46-11.34-4.65c-1.32,0.56-2.42,1.42-3.27,2.46l-13.85-5.63
				c2.95-8.61,3.12-18.25-0.17-27.37l0.06-0.06l7.94-3.34c0.11-0.06,0.23-0.11,0.34-0.17c1.81,1.98,4.7,2.78,7.31,1.64
				c3.29-1.36,4.87-5.16,3.46-8.5c-1.36-3.29-5.16-4.82-8.5-3.4c-2.61,1.08-4.08,3.68-3.91,6.35c-0.11,0.06-0.23,0.06-0.34,0.11
				l-7.99,3.34l-0.06,0.06c-4.19-8.78-11.22-15.36-19.44-19.27v-0.06l4.08-9.97c0.06-0.11,0.06-0.17,0.11-0.28
				c1.47,0.23,3,0.05,4.53-0.57c4.36-1.87,6.4-6.91,4.59-11.33c-1.87-4.36-6.92-6.46-11.34-4.59c-4.36,1.87-6.46,6.91-4.59,11.33
				c0.62,1.47,1.59,2.67,2.83,3.57c-0.06,0.06-0.11,0.17-0.11,0.23l-4.08,10.03h-0.06c-8.56-2.95-18.19-3.12-27.32,0.17l-0.06-0.06
				L522,509.81c1.42-1.53,1.93-3.8,1.08-5.84c-1.19-2.72-4.36-4.02-7.08-2.89c-2.78,1.19-4.02,4.36-2.89,7.08
				c0.85,2.04,2.83,3.29,4.93,3.29l8.27,19.72v0.06c-8.73,4.19-15.36,11.22-19.21,19.44h-0.06l-9.97-4.08
				c-0.11-0.06-0.17-0.06-0.28-0.11c0.23-1.47,0.06-3-0.57-4.48c-1.87-4.42-6.91-6.46-11.33-4.65c-4.42,1.87-6.46,6.91-4.59,11.33
				c1.81,4.36,6.92,6.46,11.28,4.59c1.47-0.62,2.72-1.59,3.63-2.83c0.06,0.06,0.11,0.11,0.23,0.11l9.98,4.08l0.06,0.06
				c-3.01,8.61-3.12,18.19,0.17,27.37h-0.06l-7.93,3.34c-0.11,0.06-0.23,0.11-0.34,0.17c-1.81-1.98-4.7-2.72-7.31-1.64
				c-3.29,1.42-4.87,5.22-3.46,8.5c1.36,3.29,5.16,4.82,8.45,3.46c2.67-1.13,4.14-3.74,3.97-6.4c0.11,0,0.23-0.06,0.34-0.11
				l7.99-3.34h0.06c4.19,8.73,11.22,15.36,19.44,19.21v0.06l-4.08,10.03c-0.06,0.06-0.06,0.11-0.11,0.23c-1.47-0.23-3,0-4.53,0.62
				c-4.36,1.81-6.46,6.91-4.59,11.28c1.87,4.42,6.91,6.46,11.34,4.59c4.36-1.81,6.46-6.91,4.59-11.28
				c-0.62-1.47-1.64-2.72-2.83-3.57c0.06-0.11,0.11-0.17,0.11-0.28l4.08-9.97v-0.06c8.61,3,18.25,3.12,27.38-0.17l0.06,0.06
				l2.55,6.07c-1.98,1.81-2.72,4.7-1.64,7.31c1.42,3.29,5.21,4.82,8.5,3.46c3.29-1.42,4.87-5.21,3.46-8.5
				c-1.08-2.61-3.68-4.08-6.35-3.97l-2.55-6.07c8.73-4.25,15.36-11.22,19.22-19.49l13.66,5.6c-0.3,1.61-0.16,3.32,0.51,4.94
				c1.87,4.36,6.92,6.46,11.34,4.59C611.21,598.9,613.31,593.8,611.44,589.43 M566.42,540.62c0.23-0.19,0.49-0.34,0.76-0.42
				c0.27-0.09,0.55-0.12,0.84-0.15c0.27,0.09,0.52,0.13,0.8,0.27c0.22,0.11,0.46,0.33,0.64,0.51c0.37,0.41,0.57,1.01,0.56,1.55
				c-0.07,0.32-0.11,0.57-0.26,0.86c-0.42,0.73-1.21,1.23-2.07,1.15c-0.56-0.06-1.11-0.3-1.48-0.71c-0.2-0.24-0.34-0.49-0.42-0.76
				c-0.09-0.27-0.12-0.56-0.1-0.86C565.75,541.49,566.01,540.99,566.42,540.62 M553.58,542.34c0.24-0.2,0.49-0.34,0.76-0.42
				c0.27-0.09,0.56-0.12,0.84-0.16c0.25,0.04,0.52,0.13,0.8,0.28c0.21,0.11,0.45,0.27,0.64,0.51c0.37,0.41,0.57,1.01,0.56,1.54
				c-0.07,0.32-0.11,0.57-0.28,0.81c-0.4,0.79-1.19,1.28-2.05,1.2c-0.61-0.04-1.11-0.3-1.48-0.71c-0.2-0.24-0.34-0.49-0.42-0.76
				c-0.09-0.27-0.12-0.56-0.1-0.86C552.91,543.21,553.16,542.71,553.58,542.34 M534.4,535.92c2.69-2.36,6.78-2.08,9.1,0.69
				c2.36,2.69,2.02,6.79-0.68,9.1c-2.69,2.36-6.77,2.08-9.1-0.69C531.35,542.33,531.64,538.25,534.4,535.92 M520.18,540.77
				c0.18-0.18,0.43-0.32,0.7-0.41c0.27-0.09,0.56-0.12,0.86-0.1c0.31,0.02,0.57,0.11,0.79,0.22c0.29,0.14,0.52,0.31,0.71,0.54
				c0.32,0.43,0.55,0.95,0.51,1.56c-0.04,0.25-0.13,0.52-0.28,0.81c-0.35,0.77-1.21,1.23-2.05,1.2c-0.56-0.06-1.13-0.35-1.5-0.77
				c-0.12-0.2-0.27-0.45-0.35-0.72c-0.09-0.27-0.17-0.54-0.15-0.84C519.48,541.71,519.77,541.14,520.18,540.77 M511.72,560.97
				c0.24-0.2,0.49-0.34,0.76-0.42c0.27-0.09,0.56-0.12,0.81-0.08c0.31,0.02,0.57,0.11,0.79,0.22c0.28,0.14,0.52,0.31,0.69,0.49
				c0.39,0.47,0.56,1.01,0.52,1.62c-0.04,0.25-0.13,0.52-0.22,0.79c-0.4,0.79-1.21,1.23-2.11,1.22c-0.55-0.06-1.07-0.37-1.45-0.78
				c-0.19-0.23-0.34-0.49-0.41-0.7c-0.1-0.32-0.12-0.56-0.15-0.85C511.01,561.91,511.3,561.34,511.72,560.97 M520.48,580.83
				c-2.71,2.31-6.79,2.02-9.1-0.69c-2.38-2.74-2.04-6.84,0.67-9.15c2.69-2.36,6.79-2.02,9.1,0.69
				C523.51,574.37,523.22,578.45,520.48,580.83 M528.46,595.34c-1.82,1.54-4.56,1.36-6.11-0.46c-1.53-1.77-1.34-4.51,0.48-6.06
				c1.75-1.58,4.51-1.34,6.04,0.43C530.41,591.08,530.23,593.82,528.46,595.34 M526.19,559.67c-1.53-1.77-1.34-4.51,0.48-6.06
				c1.77-1.53,4.51-1.34,6.04,0.43c1.54,1.82,1.36,4.56-0.41,6.09C530.48,561.68,527.74,561.49,526.19,559.67 M535.04,570.63
				c-0.56-0.06-1.11-0.3-1.5-0.76c-0.18-0.18-0.27-0.45-0.35-0.72c-0.14-0.25-0.18-0.54-0.15-0.84c0.06-0.55,0.31-1.05,0.76-1.5
				c0.2-0.12,0.45-0.26,0.72-0.35c0.27-0.09,0.56-0.12,0.84-0.15c0.25,0.04,0.57,0.11,0.8,0.27c0.27,0.09,0.5,0.26,0.7,0.49
				c0.32,0.43,0.51,1.03,0.51,1.56c-0.02,0.31-0.11,0.57-0.28,0.81C536.75,570.19,535.9,570.71,535.04,570.63 M539.81,600.6
				c-0.4,0.79-1.21,1.23-2.11,1.22c-0.56-0.06-1.07-0.37-1.45-0.78c-0.2-0.23-0.34-0.49-0.42-0.75c-0.09-0.27-0.12-0.56-0.14-0.79
				c0.06-0.56,0.35-1.13,0.77-1.5c0.23-0.2,0.49-0.34,0.75-0.42c0.27-0.09,0.56-0.12,0.81-0.08c0.3,0.02,0.57,0.11,0.79,0.22
				c0.28,0.15,0.52,0.31,0.69,0.49c0.39,0.47,0.57,1.01,0.53,1.62C540,600.06,539.9,600.33,539.81,600.6 M549.07,565.01
				c-1.82,1.54-4.51,1.34-6.06-0.48c-1.6-1.81-1.34-4.51,0.43-6.04c1.81-1.6,4.49-1.4,6.09,0.41
				C551.08,560.72,550.87,563.41,549.07,565.01 M558.63,598.55c-1.82,1.55-4.51,1.34-6.11-0.46c-1.53-1.77-1.34-4.51,0.48-6.06
				c1.77-1.53,4.51-1.34,6.05,0.48C560.64,594.27,560.4,597.03,558.63,598.55 M561.25,576.49c-0.4,0.79-1.21,1.23-2.06,1.2
				c-0.61-0.04-1.12-0.35-1.5-0.77c-0.19-0.24-0.34-0.49-0.42-0.76c-0.09-0.27-0.12-0.56-0.08-0.81c0.06-0.56,0.3-1.11,0.71-1.48
				c0.24-0.2,0.49-0.34,0.76-0.42c0.27-0.09,0.56-0.12,0.86-0.1c0.25,0.04,0.52,0.13,0.79,0.22c0.23,0.16,0.46,0.33,0.64,0.51
				c0.39,0.47,0.56,1.01,0.58,1.6C561.43,575.96,561.4,576.21,561.25,576.49 M559.32,563.36c-2.31-2.71-2.02-6.79,0.69-9.1
				c2.69-2.36,6.77-2.08,9.15,0.67c2.31,2.71,2.02,6.79-0.68,9.1C565.78,566.39,561.68,566.05,559.32,563.36 M575.16,588.55
				c-2.69,2.36-6.77,2.08-9.15-0.67c-2.31-2.71-2.02-6.79,0.69-9.1c2.69-2.36,6.79-2.02,9.15,0.67
				C578.16,582.16,577.87,586.24,575.16,588.55 M580.98,566.23c-0.4,0.79-1.21,1.23-2.11,1.22c-0.55-0.06-1.07-0.37-1.45-0.78
				c-0.19-0.23-0.34-0.49-0.42-0.76c-0.09-0.27-0.18-0.54-0.14-0.79c0.04-0.61,0.35-1.13,0.77-1.5c0.18-0.18,0.43-0.32,0.7-0.41
				c0.27-0.09,0.56-0.12,0.86-0.1c0.3,0.02,0.57,0.11,0.79,0.22c0.29,0.15,0.52,0.31,0.7,0.49c0.39,0.47,0.57,1.01,0.52,1.62
				C581.16,565.69,581.07,565.96,580.98,566.23"/>
		</g>
		<g class="st7">
			<path class="st5" d="M569.15,554.93c-2.38-2.75-6.46-3.03-9.15-0.67c-2.71,2.31-2.99,6.39-0.69,9.1
				c2.36,2.69,6.46,3.03,9.15,0.67C571.18,561.72,571.46,557.63,569.15,554.93"/>
		</g>
		<g class="st7">
			<path class="st5" d="M521.15,571.67c-2.31-2.71-6.41-3.05-9.1-0.69c-2.71,2.31-3.05,6.41-0.67,9.15c2.31,2.71,6.39,2.99,9.1,0.69
				C523.22,578.45,523.51,574.37,521.15,571.67"/>
		</g>
		<g class="st7">
			<path class="st5" d="M553.37,545.38c0.37,0.42,0.87,0.67,1.48,0.71c0.86,0.08,1.65-0.42,2.05-1.2c0.16-0.23,0.2-0.48,0.27-0.8
				c0.01-0.54-0.19-1.13-0.56-1.55c-0.2-0.24-0.43-0.4-0.64-0.51c-0.29-0.14-0.55-0.24-0.8-0.27c-0.29,0.03-0.58,0.06-0.85,0.15
				c-0.27,0.09-0.52,0.23-0.75,0.42c-0.41,0.37-0.67,0.87-0.73,1.43c-0.02,0.3,0.01,0.59,0.1,0.86
				C553.04,544.9,553.18,545.15,553.37,545.38"/>
		</g>
		<g class="st7">
			<path class="st5" d="M519.93,543.83c0.37,0.42,0.94,0.71,1.5,0.77c0.84,0.03,1.71-0.43,2.05-1.2c0.14-0.29,0.24-0.55,0.28-0.8
				c0.04-0.61-0.19-1.13-0.51-1.56c-0.2-0.23-0.43-0.4-0.71-0.54c-0.21-0.11-0.48-0.2-0.79-0.22c-0.3-0.02-0.59,0.01-0.86,0.1
				c-0.27,0.09-0.52,0.23-0.7,0.41c-0.42,0.37-0.71,0.94-0.77,1.5c-0.02,0.31,0.07,0.58,0.15,0.84
				C519.66,543.38,519.8,543.63,519.93,543.83"/>
		</g>
		<g class="st7">
			<path class="st5" d="M538.82,597.71c-0.21-0.11-0.48-0.2-0.79-0.22c-0.25-0.04-0.54,0-0.81,0.08c-0.27,0.09-0.52,0.23-0.75,0.42
				c-0.42,0.37-0.71,0.94-0.77,1.5c0.02,0.23,0.05,0.52,0.14,0.79c0.09,0.27,0.23,0.52,0.42,0.75c0.37,0.42,0.89,0.72,1.45,0.78
				c0.9,0.01,1.71-0.43,2.11-1.22c0.09-0.27,0.18-0.54,0.22-0.79c0.04-0.61-0.13-1.15-0.53-1.62
				C539.33,598.02,539.1,597.85,538.82,597.71"/>
		</g>
		<g class="st7">
			<path class="st5" d="M511.51,564.01c0.37,0.41,0.89,0.72,1.45,0.78c0.9,0.01,1.71-0.43,2.11-1.22c0.09-0.27,0.18-0.54,0.22-0.79
				c0.04-0.61-0.13-1.15-0.52-1.62c-0.18-0.18-0.41-0.34-0.69-0.49c-0.22-0.11-0.48-0.2-0.79-0.22c-0.25-0.04-0.54-0.01-0.81,0.08
				c-0.27,0.09-0.52,0.23-0.76,0.42c-0.41,0.37-0.71,0.94-0.76,1.5c0.03,0.29,0.05,0.52,0.15,0.85
				C511.18,563.52,511.32,563.78,511.51,564.01"/>
		</g>
		<g class="st7">
			<path class="st5" d="M566.7,578.78c-2.71,2.31-2.99,6.39-0.69,9.1c2.38,2.74,6.46,3.03,9.15,0.67c2.71-2.31,2.99-6.39,0.69-9.1
				C573.49,576.76,569.39,576.42,566.7,578.78"/>
		</g>
		<g class="st7">
			<path class="st5" d="M579.98,563.33c-0.21-0.11-0.48-0.2-0.79-0.22c-0.31-0.02-0.59,0.01-0.86,0.1c-0.27,0.09-0.52,0.23-0.7,0.41
				c-0.41,0.37-0.72,0.89-0.77,1.5c-0.04,0.25,0.05,0.52,0.14,0.79c0.09,0.27,0.23,0.52,0.42,0.75c0.37,0.42,0.89,0.72,1.45,0.78
				c0.9,0.01,1.71-0.43,2.11-1.22c0.09-0.27,0.19-0.54,0.22-0.79c0.04-0.61-0.13-1.15-0.53-1.62
				C580.5,563.64,580.27,563.48,579.98,563.33"/>
		</g>
		<g class="st7">
			<path class="st5" d="M566.22,543.66c0.37,0.41,0.93,0.65,1.48,0.71c0.86,0.08,1.65-0.42,2.07-1.15c0.14-0.29,0.19-0.54,0.26-0.86
				c0.01-0.54-0.19-1.13-0.56-1.55c-0.18-0.18-0.43-0.4-0.64-0.51c-0.28-0.15-0.54-0.18-0.8-0.27c-0.29,0.03-0.57,0.07-0.84,0.15
				c-0.27,0.09-0.52,0.23-0.76,0.42c-0.41,0.37-0.67,0.87-0.73,1.43c-0.02,0.31,0.01,0.59,0.1,0.86
				C565.88,543.17,566.02,543.43,566.22,543.66"/>
		</g>
		<g class="st7">
			<path class="st5" d="M542.81,545.71c2.71-2.31,3.05-6.41,0.69-9.1c-2.33-2.76-6.41-3.05-9.1-0.69c-2.76,2.33-3.05,6.41-0.68,9.1
				C536.04,547.78,540.12,548.07,542.81,545.71"/>
		</g>
		<g class="st7">
			<path class="st5" d="M543.44,558.49c-1.77,1.53-2.03,4.23-0.43,6.04c1.55,1.82,4.23,2.03,6.05,0.48c1.81-1.6,2.01-4.29,0.46-6.11
				C547.93,557.09,545.25,556.89,543.44,558.49"/>
		</g>
		<g class="st7">
			<path class="st5" d="M553,592.03c-1.82,1.54-2.01,4.29-0.48,6.06c1.6,1.81,4.28,2.01,6.11,0.46c1.77-1.53,2.01-4.28,0.43-6.04
				C557.51,590.69,554.77,590.51,553,592.03"/>
		</g>
		<g class="st7">
			<path class="st5" d="M522.83,588.83c-1.82,1.54-2.01,4.28-0.48,6.06c1.54,1.82,4.28,2.01,6.11,0.46
				c1.77-1.53,1.95-4.27,0.41-6.09C527.34,587.48,524.58,587.24,522.83,588.83"/>
		</g>
		<g class="st7">
			<path class="st5" d="M537.1,569.43c0.16-0.23,0.26-0.5,0.28-0.81c0-0.54-0.19-1.13-0.51-1.56c-0.19-0.23-0.43-0.4-0.7-0.49
				c-0.23-0.16-0.55-0.24-0.8-0.28c-0.29,0.03-0.57,0.07-0.84,0.16c-0.27,0.09-0.52,0.23-0.72,0.35c-0.45,0.44-0.71,0.94-0.77,1.5
				c-0.02,0.3,0.01,0.59,0.15,0.84c0.09,0.27,0.18,0.54,0.35,0.72c0.39,0.47,0.94,0.71,1.5,0.77
				C535.9,570.71,536.75,570.19,537.1,569.43"/>
		</g>
		<g class="st7">
			<path class="st5" d="M532.71,554.05c-1.53-1.77-4.27-1.95-6.04-0.43c-1.82,1.54-2.01,4.29-0.48,6.06
				c1.54,1.82,4.29,2.01,6.11,0.46C534.07,558.61,534.25,555.87,532.71,554.05"/>
		</g>
		<g class="st7">
			<path class="st5" d="M560.31,573.58c-0.27-0.09-0.54-0.19-0.79-0.22c-0.31-0.02-0.59,0.01-0.86,0.1
				c-0.27,0.09-0.52,0.23-0.76,0.42c-0.41,0.37-0.65,0.93-0.71,1.48c-0.04,0.25,0,0.54,0.08,0.81c0.09,0.27,0.23,0.52,0.42,0.76
				c0.37,0.41,0.89,0.72,1.5,0.77c0.84,0.02,1.65-0.42,2.05-1.2c0.15-0.29,0.18-0.54,0.28-0.8c-0.01-0.59-0.19-1.13-0.58-1.6
				C560.77,573.91,560.54,573.74,560.31,573.58"/>
		</g>
	</g>
	<g>
		<path class="st8 st9" d="M542.47,98.23c175.67,0,318.38,142.45,318.38,318.1c0,175.88-142.72,318.33-318.38,318.33
			c-175.91,0-318.39-142.46-318.39-318.33C224.08,240.69,366.56,98.23,542.47,98.23 M542.47,207.03
			c115.69,0,209.57,93.63,209.57,209.3c0,115.67-93.88,209.54-209.57,209.54c-115.7,0-209.57-93.86-209.57-209.54
			C332.89,300.66,426.77,207.03,542.47,207.03"/>
	</g>
	<g>
		<path class="st4" d="M800.65,495.09c-7.29-17.21-26.92-25.16-44.14-18.09c-5.13,2.2-9.41,5.53-12.73,9.57l-53.92-21.93
			c11.48-33.54,12.14-71.05-0.66-106.58l0.22-0.22l30.9-13.02c0.44-0.22,0.88-0.44,1.32-0.66c7.06,7.73,18.32,10.81,28.47,6.4
			c12.8-5.29,18.98-20.08,13.46-33.1c-5.3-12.8-20.08-18.75-33.11-13.24c-10.15,4.19-15.89,14.34-15.23,24.71
			c-0.44,0.22-0.88,0.22-1.32,0.44L682.8,342.4l-0.22,0.22c-16.33-34.2-43.7-59.8-75.7-75.02v-0.22l15.89-38.84
			c0.22-0.44,0.22-0.66,0.44-1.1c5.74,0.88,11.7,0.22,17.66-2.21c16.99-7.28,24.94-26.92,17.88-44.13
			c-7.29-16.99-26.93-25.15-44.14-17.87c-16.99,7.28-25.16,26.92-17.88,44.13c2.42,5.74,6.18,10.37,11.03,13.9
			c-0.22,0.22-0.44,0.66-0.44,0.89l-15.89,39.05h-0.22c-33.32-11.47-70.84-12.14-106.37,0.66l-0.23-0.22l-32.22-76.57
			c5.52-5.95,7.5-14.79,4.19-22.73c-4.63-10.59-16.99-15.66-27.59-11.25c-10.81,4.63-15.67,16.99-11.26,27.58
			c3.31,7.94,11.04,12.8,19.2,12.8l32.22,76.79v0.22c-33.99,16.33-59.81,43.69-74.82,75.68h-0.22l-38.85-15.89
			c-0.44-0.22-0.66-0.22-1.1-0.44c0.88-5.74,0.22-11.7-2.21-17.43c-7.28-17.21-26.92-25.16-44.13-18.1
			c-17.22,7.28-25.16,26.92-17.88,44.13c7.06,16.99,26.93,25.16,43.92,17.88c5.74-2.43,10.59-6.18,14.12-11.03
			c0.22,0.22,0.44,0.44,0.89,0.44l38.84,15.89l0.22,0.22c-11.7,33.54-12.14,70.83,0.66,106.57h-0.22l-30.9,13.02
			c-0.44,0.22-0.89,0.44-1.33,0.66c-7.06-7.72-18.32-10.59-28.47-6.4c-12.8,5.52-18.98,20.3-13.46,33.1
			c5.3,12.8,20.08,18.76,32.88,13.46c10.37-4.42,16.11-14.56,15.45-24.93c0.44,0,0.88-0.22,1.32-0.44l31.12-13.02h0.22
			c16.33,33.98,43.69,59.8,75.7,74.8v0.22l-15.89,39.06c-0.22,0.22-0.22,0.44-0.44,0.88c-5.74-0.88-11.7,0-17.65,2.42
			c-16.99,7.07-25.16,26.92-17.88,43.91c7.28,17.21,26.92,25.15,44.14,17.87c16.99-7.06,25.16-26.92,17.88-43.91
			c-2.43-5.73-6.4-10.59-11.04-13.9c0.22-0.44,0.44-0.66,0.44-1.1l15.89-38.84v-0.22c33.54,11.7,71.06,12.14,106.59-0.66l0.22,0.22
			l9.93,23.61c-7.73,7.06-10.59,18.32-6.4,28.46c5.51,12.8,20.3,18.76,33.1,13.46c12.8-5.52,18.98-20.31,13.46-33.1
			c-4.19-10.15-14.35-15.88-24.72-15.44l-9.93-23.61c33.99-16.55,59.8-43.69,74.81-75.91l53.19,21.8
			c-1.17,6.25-0.62,12.91,1.98,19.24c7.29,16.99,26.93,25.15,44.14,17.87C799.77,531.94,807.93,512.08,800.65,495.09 M625.37,305.01
			c0.91-0.76,1.9-1.31,2.95-1.65c1.05-0.34,2.17-0.47,3.28-0.6c1.04,0.36,2.02,0.5,3.13,1.07c0.84,0.42,1.81,1.27,2.49,1.98
			c1.45,1.61,2.2,3.93,2.18,6.02c-0.29,1.26-0.44,2.23-1,3.34c-1.63,2.85-4.71,4.78-8.06,4.47c-2.16-0.23-4.32-1.15-5.77-2.77
			c-0.77-0.92-1.31-1.9-1.65-2.95c-0.34-1.05-0.47-2.17-0.39-3.35C622.76,308.4,623.76,306.46,625.37,305.01 M575.35,311.71
			c0.92-0.76,1.9-1.31,2.95-1.65c1.05-0.34,2.17-0.47,3.29-0.6c0.97,0.15,2.01,0.51,3.13,1.07c0.83,0.43,1.74,1.06,2.49,1.98
			c1.45,1.61,2.2,3.93,2.18,6.02c-0.29,1.26-0.43,2.23-1.07,3.13c-1.56,3.06-4.65,4.99-8,4.68c-2.37-0.16-4.32-1.15-5.77-2.77
			c-0.76-0.91-1.31-1.89-1.65-2.94c-0.34-1.05-0.47-2.17-0.39-3.36C572.74,315.1,573.74,313.16,575.35,311.71 M500.69,286.72
			c10.47-9.19,26.38-8.09,35.43,2.67c9.2,10.47,7.87,26.44-2.67,35.43c-10.47,9.19-26.38,8.08-35.42-2.68
			C488.83,311.68,489.94,295.78,500.69,286.72 M445.33,305.59c0.7-0.69,1.69-1.25,2.73-1.59c1.05-0.34,2.17-0.47,3.35-0.39
			c1.19,0.08,2.23,0.44,3.07,0.86c1.11,0.57,2.01,1.2,2.77,2.12c1.24,1.68,2.13,3.72,1.97,6.09c-0.15,0.98-0.51,2.02-1.07,3.13
			c-1.35,2.99-4.72,4.78-8,4.68c-2.16-0.23-4.39-1.36-5.83-2.98c-0.48-0.77-1.04-1.75-1.38-2.8c-0.34-1.05-0.68-2.1-0.6-3.28
			C442.58,309.26,443.72,307.04,445.33,305.59 M412.37,384.24c0.91-0.76,1.89-1.31,2.95-1.65c1.05-0.34,2.17-0.47,3.14-0.32
			c1.19,0.08,2.23,0.44,3.07,0.87c1.11,0.57,2.01,1.2,2.71,1.9c1.52,1.83,2.2,3.93,2.04,6.3c-0.15,0.98-0.51,2.02-0.87,3.07
			c-1.56,3.05-4.71,4.77-8.2,4.74c-2.16-0.23-4.18-1.43-5.63-3.05c-0.76-0.91-1.31-1.9-1.58-2.74c-0.41-1.26-0.47-2.17-0.6-3.29
			C409.62,387.92,410.75,385.7,412.37,384.24 M446.48,461.58c-10.54,8.98-26.44,7.87-35.43-2.67c-9.26-10.68-7.94-26.65,2.6-35.64
			c10.48-9.19,26.44-7.87,35.43,2.67C458.27,436.42,457.17,452.32,446.48,461.58 M477.55,518.09c-7.1,6.02-17.77,5.3-23.78-1.8
			c-5.94-6.89-5.23-17.56,1.87-23.57c6.82-6.15,17.56-5.23,23.5,1.66C485.16,501.48,484.44,512.15,477.55,518.09 M468.73,379.2
			c-5.94-6.89-5.23-17.56,1.87-23.57c6.89-5.94,17.56-5.23,23.5,1.66c6.01,7.1,5.29,17.77-1.59,23.72
			C485.41,387.02,474.74,386.3,468.73,379.2 M503.2,421.86c-2.16-0.23-4.32-1.15-5.84-2.98c-0.69-0.71-1.03-1.76-1.37-2.8
			c-0.55-0.98-0.68-2.1-0.6-3.29c0.23-2.16,1.22-4.11,2.98-5.84c0.77-0.48,1.75-1.03,2.8-1.37c1.05-0.34,2.17-0.47,3.29-0.6
			c0.97,0.15,2.23,0.44,3.13,1.07c1.05,0.36,1.95,0.99,2.71,1.91c1.24,1.68,1.99,3.99,1.97,6.09c-0.08,1.19-0.44,2.23-1.08,3.13
			C509.84,420.17,506.54,422.17,503.2,421.86 M521.76,538.56c-1.56,3.06-4.71,4.78-8.2,4.75c-2.16-0.23-4.17-1.43-5.63-3.05
			c-0.76-0.91-1.31-1.89-1.65-2.94c-0.34-1.05-0.47-2.17-0.53-3.08c0.23-2.16,1.36-4.38,2.98-5.84c0.91-0.76,1.89-1.31,2.94-1.65
			c1.05-0.34,2.17-0.47,3.14-0.32c1.19,0.08,2.23,0.44,3.07,0.86c1.11,0.57,2.01,1.21,2.71,1.91c1.52,1.83,2.2,3.93,2.04,6.3
			C522.48,536.48,522.12,537.52,521.76,538.56 M557.8,399.98c-7.1,6.01-17.56,5.22-23.57-1.87c-6.22-7.03-5.23-17.56,1.66-23.51
			c7.03-6.22,17.49-5.44,23.71,1.59C565.62,383.3,564.84,393.76,557.8,399.98 M595.03,530.6c-7.09,6.01-17.56,5.23-23.78-1.81
			c-5.95-6.89-5.23-17.56,1.87-23.57c6.89-5.94,17.56-5.22,23.57,1.87C602.84,513.91,601.92,524.65,595.03,530.6 M605.23,444.7
			c-1.56,3.05-4.71,4.77-8,4.68c-2.37-0.16-4.38-1.36-5.83-2.98c-0.76-0.91-1.31-1.9-1.65-2.95c-0.34-1.05-0.47-2.16-0.32-3.14
			c0.23-2.16,1.15-4.32,2.77-5.77c0.91-0.76,1.89-1.31,2.94-1.65c1.05-0.34,2.17-0.47,3.36-0.39c0.97,0.15,2.02,0.51,3.06,0.87
			c0.9,0.64,1.8,1.27,2.49,1.97c1.52,1.83,2.2,3.93,2.25,6.23C605.95,442.61,605.8,443.59,605.23,444.7 M597.7,393.55
			c-8.98-10.54-7.87-26.44,2.67-35.43c10.47-9.19,26.37-8.08,35.63,2.61c8.98,10.54,7.87,26.44-2.67,35.43
			C622.87,405.34,606.9,404.02,597.7,393.55 M659.41,491.63c-10.47,9.19-26.37,8.08-35.64-2.6c-8.99-10.54-7.87-26.44,2.67-35.43
			c10.47-9.19,26.44-7.88,35.64,2.6C671.06,466.75,669.96,482.65,659.41,491.63 M682.05,404.73c-1.56,3.06-4.71,4.78-8.2,4.75
			c-2.16-0.23-4.18-1.43-5.63-3.05c-0.76-0.91-1.31-1.89-1.65-2.94s-0.68-2.1-0.53-3.07c0.16-2.37,1.36-4.39,2.98-5.84
			c0.7-0.69,1.69-1.24,2.73-1.58c1.05-0.34,2.17-0.47,3.35-0.39c1.19,0.08,2.23,0.44,3.06,0.86c1.11,0.56,2.02,1.2,2.71,1.91
			c1.52,1.83,2.2,3.93,2.04,6.3C682.77,402.64,682.4,403.68,682.05,404.73"/>
	</g>
	<g>
		<path class="st5" d="M636.01,360.72c-9.26-10.69-25.16-11.8-35.63-2.6c-10.54,8.99-11.65,24.89-2.67,35.43
			c9.19,10.48,25.16,11.8,35.64,2.6C643.88,387.17,644.99,371.27,636.01,360.72"/>
	</g>
	<g>
		<path class="st5" d="M449.08,425.94c-8.99-10.55-24.95-11.87-35.43-2.67c-10.54,8.99-11.86,24.96-2.6,35.64
			c8.98,10.54,24.89,11.66,35.43,2.67C457.17,452.32,458.27,436.42,449.08,425.94"/>
	</g>
	<g>
		<path class="st5" d="M574.56,323.56c1.45,1.62,3.4,2.61,5.77,2.77c3.35,0.31,6.43-1.62,8-4.68c0.64-0.9,0.78-1.88,1.07-3.13
			c0.02-2.09-0.73-4.4-2.18-6.02c-0.76-0.92-1.66-1.55-2.49-1.98c-1.12-0.57-2.16-0.92-3.13-1.07c-1.12,0.13-2.24,0.26-3.29,0.6
			c-1.05,0.34-2.03,0.89-2.95,1.65c-1.61,1.45-2.61,3.4-2.83,5.56c-0.08,1.19,0.05,2.3,0.39,3.36
			C573.25,321.67,573.8,322.65,574.56,323.56"/>
	</g>
	<g>
		<path class="st5" d="M444.33,317.51c1.45,1.62,3.67,2.75,5.83,2.98c3.28,0.1,6.64-1.69,8-4.68c0.57-1.11,0.92-2.16,1.07-3.13
			c0.16-2.37-0.73-4.4-1.97-6.09c-0.76-0.92-1.66-1.55-2.77-2.12c-0.83-0.42-1.88-0.78-3.07-0.86c-1.19-0.08-2.3,0.05-3.35,0.39
			c-1.05,0.34-2.03,0.89-2.73,1.59c-1.62,1.45-2.76,3.67-2.98,5.84c-0.08,1.19,0.26,2.23,0.6,3.28
			C443.29,315.76,443.85,316.74,444.33,317.51"/>
	</g>
	<g>
		<path class="st5" d="M517.88,527.29c-0.84-0.42-1.88-0.78-3.06-0.86c-0.97-0.15-2.09-0.02-3.14,0.32
			c-1.05,0.34-2.03,0.89-2.94,1.65c-1.62,1.45-2.75,3.67-2.98,5.84c0.07,0.91,0.19,2.02,0.53,3.08c0.34,1.05,0.89,2.03,1.65,2.94
			c1.46,1.62,3.47,2.82,5.63,3.05c3.49,0.03,6.64-1.69,8.2-4.75c0.35-1.04,0.72-2.09,0.86-3.07c0.16-2.37-0.52-4.47-2.04-6.3
			C519.89,528.5,518.99,527.86,517.88,527.29"/>
	</g>
	<g>
		<path class="st5" d="M411.57,396.1c1.45,1.61,3.47,2.82,5.63,3.05c3.49,0.03,6.64-1.69,8.2-4.74c0.35-1.05,0.71-2.09,0.86-3.07
			c0.16-2.37-0.52-4.47-2.04-6.3c-0.69-0.7-1.6-1.34-2.71-1.9c-0.84-0.43-1.88-0.79-3.07-0.86c-0.97-0.15-2.09-0.02-3.14,0.32
			c-1.05,0.34-2.03,0.89-2.95,1.65c-1.62,1.45-2.75,3.68-2.98,5.84c0.13,1.12,0.19,2.03,0.6,3.29
			C410.26,394.21,410.82,395.19,411.57,396.1"/>
	</g>
	<g>
		<path class="st5" d="M626.44,453.6c-10.54,8.99-11.65,24.89-2.66,35.43c9.26,10.69,25.16,11.8,35.64,2.6
			c10.54-8.98,11.65-24.88,2.67-35.43C652.89,445.73,636.92,444.41,626.44,453.6"/>
	</g>
	<g>
		<path class="st5" d="M678.16,393.46c-0.83-0.43-1.87-0.78-3.06-0.86c-1.19-0.08-2.3,0.05-3.35,0.39
			c-1.05,0.34-2.03,0.89-2.73,1.58c-1.62,1.45-2.82,3.46-2.98,5.84c-0.15,0.97,0.19,2.02,0.53,3.07c0.34,1.05,0.89,2.03,1.65,2.94
			c1.45,1.62,3.47,2.82,5.63,3.05c3.49,0.03,6.65-1.69,8.2-4.75c0.36-1.04,0.72-2.09,0.86-3.07c0.16-2.37-0.52-4.47-2.04-6.3
			C680.18,394.66,679.27,394.02,678.16,393.46"/>
	</g>
	<g>
		<path class="st5" d="M624.58,316.87c1.45,1.62,3.6,2.54,5.77,2.77c3.35,0.31,6.43-1.62,8.06-4.47c0.57-1.11,0.72-2.09,1-3.34
			c0.02-2.09-0.73-4.4-2.18-6.02c-0.69-0.7-1.66-1.55-2.5-1.97c-1.11-0.57-2.09-0.72-3.13-1.07c-1.12,0.13-2.23,0.26-3.29,0.6
			c-1.05,0.34-2.03,0.89-2.95,1.65c-1.62,1.45-2.61,3.4-2.83,5.56c-0.08,1.19,0.05,2.3,0.39,3.35
			C623.27,314.97,623.82,315.95,624.58,316.87"/>
	</g>
	<g>
		<path class="st5" d="M533.45,324.83c10.54-8.99,11.86-24.96,2.67-35.43c-9.05-10.76-24.95-11.87-35.43-2.67
			c-10.75,9.05-11.86,24.95-2.66,35.43C507.07,332.9,522.97,334.02,533.45,324.83"/>
	</g>
	<g>
		<path class="st5" d="M535.9,374.6c-6.89,5.95-7.89,16.47-1.66,23.51c6.02,7.1,16.47,7.89,23.57,1.87
			c7.03-6.22,7.81-16.69,1.8-23.79C553.38,369.17,542.92,368.38,535.9,374.6"/>
	</g>
	<g>
		<path class="st5" d="M573.12,505.21c-7.1,6.01-7.81,16.69-1.87,23.57c6.22,7.04,16.68,7.82,23.78,1.81
			c6.89-5.94,7.81-16.68,1.66-23.51C590.68,499.99,580.01,499.27,573.12,505.21"/>
	</g>
	<g>
		<path class="st5" d="M455.64,492.72c-7.1,6.01-7.81,16.68-1.87,23.57c6.01,7.1,16.68,7.82,23.78,1.8
			c6.89-5.94,7.6-16.61,1.59-23.71C473.2,487.49,462.46,486.56,455.64,492.72"/>
	</g>
	<g>
		<path class="st5" d="M511.19,417.18c0.64-0.9,1-1.94,1.08-3.13c0.02-2.1-0.73-4.41-1.97-6.09c-0.76-0.91-1.66-1.55-2.71-1.91
			c-0.9-0.64-2.16-0.92-3.13-1.07c-1.12,0.13-2.24,0.26-3.29,0.6c-1.05,0.34-2.03,0.89-2.8,1.37c-1.76,1.73-2.75,3.68-2.98,5.84
			c-0.08,1.19,0.05,2.31,0.6,3.29c0.34,1.05,0.68,2.1,1.37,2.81c1.52,1.83,3.68,2.75,5.84,2.98
			C506.54,422.17,509.84,420.17,511.19,417.18"/>
	</g>
	<g>
		<path class="st5" d="M494.1,357.29c-5.94-6.89-16.62-7.61-23.5-1.66c-7.1,6.01-7.82,16.68-1.87,23.57
			c6.01,7.1,16.68,7.82,23.78,1.8C499.39,375.07,500.11,364.39,494.1,357.29"/>
	</g>
	<g>
		<path class="st5" d="M601.56,433.36c-1.04-0.36-2.09-0.72-3.06-0.87c-1.19-0.08-2.31,0.05-3.36,0.39
			c-1.05,0.34-2.03,0.89-2.94,1.65c-1.62,1.45-2.54,3.61-2.77,5.77c-0.15,0.98-0.02,2.1,0.32,3.14c0.34,1.05,0.89,2.03,1.65,2.95
			c1.45,1.62,3.47,2.82,5.83,2.98c3.28,0.09,6.44-1.62,8-4.68c0.57-1.11,0.71-2.09,1.07-3.13c-0.05-2.31-0.73-4.4-2.25-6.23
			C603.36,434.63,602.46,434,601.56,433.36"/>
	</g>
	<g>
		<polygon class="st8" points="694.67,182.61 776.45,264.15 390.27,650.28 308.48,568.74 		"/>
	</g>
</g>
</svg>
